<?xml version="1.0" standalone="no"?>
<!DOCTYPE svg PUBLIC "-//W3C//DTD SVG 20010904//EN"
 "http://www.w3.org/TR/2001/REC-SVG-20010904/DTD/svg10.dtd">
<svg version="1.0" xmlns="http://www.w3.org/2000/svg"
 width="40.000000pt" height="40.000000pt" viewBox="0 0 40.000000 40.000000"
 preserveAspectRatio="xMidYMid meet">

<g transform="translate(0.000000,40.000000) scale(0.100000,-0.100000)"
fill="#FFFFFF" stroke="none">
<path d="M158 373 c-17 -39 -15 -38 -44 -23 -44 24 -88 -20 -64 -64 15 -29 16
-27 -22 -44 -22 -9 -28 -18 -28 -42 0 -24 6 -33 28 -42 38 -17 37 -15 22 -44
-24 -44 20 -88 64 -64 29 15 27 16 44 -22 17 -40 67 -40 84 0 17 38 15 37 44
22 44 -24 88 20 64 64 -15 29 -16 27 23 44 21 9 27 18 27 42 0 24 -6 33 -27
42 -39 17 -38 15 -23 44 24 44 -20 88 -64 64 -29 -15 -27 -16 -44 23 -9 21
-18 27 -42 27 -24 0 -33 -6 -42 -27z m99 -115 c51 -48 15 -138 -56 -138 -47 0
-81 32 -81 79 0 72 84 109 137 59z"/>
</g>
</svg>
